<?xml version="1.0" standalone="no"?>
<!DOCTYPE svg PUBLIC "-//W3C//DTD SVG 20010904//EN"
 "http://www.w3.org/TR/2001/REC-SVG-20010904/DTD/svg10.dtd">
<svg version="1.0" xmlns="http://www.w3.org/2000/svg"
 width="1024.000000pt" height="1024.000000pt" viewBox="0 0 1024.000000 1024.000000"
 preserveAspectRatio="xMidYMid meet">

<g transform="translate(0.000000,1024.000000) scale(0.100000,-0.100000)"
fill="#000000" stroke="none">
<path d="M2910 9273 c-384 -12 -687 -59 -880 -135 -283 -111 -583 -357 -765
-628 -206 -307 -270 -554 -296 -1153 -15 -351 -7 -4534 9 -4702 18 -187 32
-281 59 -405 90 -415 385 -807 785 -1045 216 -129 422 -186 818 -227 158 -16
4415 -24 4746 -9 276 13 447 32 603 67 457 102 883 445 1101 889 116 236 159
466 181 959 15 352 7 4534 -9 4701 -38 393 -88 585 -208 797 -133 236 -326
446 -544 593 -302 203 -552 269 -1125 295 -191 8 -4216 12 -4475 3z m3420
-2153 l0 -560 560 0 560 0 0 -2000 0 -2000 -560 0 -560 0 0 2000 0 2000 -1520
0 -1520 0 0 560 0 560 1520 0 1520 0 0 -560z m-1744 -1340 c709 -129 1251
-712 1334 -1435 48 -419 -82 -865 -349 -1200 -104 -131 -298 -299 -448 -389
-451 -270 -1052 -298 -1528 -72 -182 87 -310 177 -462 328 -164 162 -284 343
-365 548 -237 608 -108 1273 340 1741 276 290 609 450 1047 503 76 9 328 -5
431 -24z"/>
</g>
</svg>
